<svg xmlns="http://www.w3.org/2000/svg" viewBox="0 0 32 32"><defs><style>.cls-1{fill:none;stroke:#000;stroke-linejoin:round;stroke-width:2px;}</style></defs><title>22-like</title><g id="_22-like" data-name="22-like"><rect class="cls-1" x="20" y="12" width="8" height="16"/><path class="cls-1" d="M5,16a2,2,0,0,1-2-2H3a2,2,0,0,1,2-2H17l3,3"/><path class="cls-1" d="M10,16H3a2,2,0,0,0-2,2H1a2,2,0,0,0,2,2h7"/><path class="cls-1" d="M5,20a2,2,0,0,0-2,2H3a2,2,0,0,0,2,2h5"/><path class="cls-1" d="M7,24a2,2,0,0,0-2,2H5a2,2,0,0,0,2,2H17l3-3"/><line class="cls-1" x1="28" y1="14" x2="31" y2="14"/><line class="cls-1" x1="28" y1="26" x2="31" y2="26"/><path class="cls-1" d="M17,12,14,9V4s-4,0-4,4v4"/><line class="cls-1" x1="23" y1="16" x2="25" y2="16"/></g></svg>